<svg xmlns="http://www.w3.org/2000/svg" width="253" height="188" viewBox="0 0 253 188">
  <g id="Group_672" data-name="Group 672" transform="translate(4759 6865)">
    <g id="Rectangle_785" data-name="Rectangle 785" transform="translate(-4759 -6865)" fill="rgba(255,255,255,0)" stroke="#fff" stroke-width="2">
      <rect width="253" height="188" rx="10" stroke="none"/>
      <rect x="1" y="1" width="251" height="186" rx="9" fill="none"/>
    </g>
    <g id="Rectangle_790" data-name="Rectangle 790" transform="translate(-4759 -6865)" fill="rgba(255,255,255,0.33)" stroke="#fff" stroke-width="2">
      <path d="M10,0H64a0,0,0,0,1,0,0V188a0,0,0,0,1,0,0H10A10,10,0,0,1,0,178V10A10,10,0,0,1,10,0Z" stroke="none"/>
      <path d="M10,1H63a0,0,0,0,1,0,0V187a0,0,0,0,1,0,0H10a9,9,0,0,1-9-9V10A9,9,0,0,1,10,1Z" fill="none"/>
    </g>
    <g id="Rectangle_792" data-name="Rectangle 792" transform="translate(-4686 -6854)" fill="rgba(255,255,255,0.33)" stroke="#fff" stroke-width="2">
      <rect width="170" height="35" rx="7" stroke="none"/>
      <rect x="1" y="1" width="168" height="33" rx="6" fill="none"/>
    </g>
    <rect id="Rectangle_796" data-name="Rectangle 796" width="19" height="9" rx="2" transform="translate(-4566 -6841)" fill="#3d8f1f"/>
    <rect id="Rectangle_797" data-name="Rectangle 797" width="19" height="9" rx="2" transform="translate(-4546 -6841)" fill="#8f1f20"/>
    <rect id="Rectangle_798" data-name="Rectangle 798" width="54" height="9" rx="2" transform="translate(-4675 -6841)" fill="#fff" opacity="0.5"/>
    <g id="Rectangle_802" data-name="Rectangle 802" transform="translate(-4685 -6812)" fill="rgba(255,255,255,0)" stroke="#fff" stroke-width="2">
      <rect width="170" height="100" rx="7" stroke="none"/>
      <rect x="1" y="1" width="168" height="98" rx="6" fill="none"/>
    </g>
    <g id="Group_675" data-name="Group 675" transform="translate(-4613 -6774)">
      <path id="Path_503" data-name="Path 503" d="M7,11,9,9,7,7" fill="none" stroke="#fff" stroke-linecap="round" stroke-linejoin="round" stroke-width="2"/>
      <path id="Path_504" data-name="Path 504" d="M11,13h4" fill="none" stroke="#fff" stroke-linecap="round" stroke-linejoin="round" stroke-width="2"/>
      <rect id="Rectangle_805" data-name="Rectangle 805" width="18" height="18" rx="2" transform="translate(3 3)" fill="none" stroke="#fff" stroke-linecap="round" stroke-linejoin="round" stroke-width="2"/>
    </g>
  </g>
</svg>
