<svg xmlns="http://www.w3.org/2000/svg" width="253" height="140" viewBox="0 0 253 140">
  <g id="Group_679" data-name="Group 679" transform="translate(4754 6260)">
    <g id="Wrapper" transform="translate(-4754 -6260)" fill="rgba(255,255,255,0)" stroke="#fff" stroke-width="2">
      <rect width="253" height="140" rx="10" stroke="none"/>
      <rect x="1" y="1" width="251" height="138" rx="9" fill="none"/>
    </g>
    <rect id="Rectangle_825" data-name="Rectangle 825" width="46" height="10" rx="2" transform="translate(-4744 -6206)" fill="#fff" opacity="0.5"/>
    <rect id="Rectangle_826" data-name="Rectangle 826" width="35" height="10" rx="2" transform="translate(-4686 -6206)" fill="#fff" opacity="0.5"/>
    <rect id="Rectangle_827" data-name="Rectangle 827" width="35" height="10" rx="2" transform="translate(-4639 -6206)" fill="#fff" opacity="0.5"/>
    <rect id="Rectangle_828" data-name="Rectangle 828" width="35" height="10" rx="2" transform="translate(-4593 -6206)" fill="#fff" opacity="0.5"/>
    <rect id="Rectangle_829" data-name="Rectangle 829" width="35" height="10" rx="2" transform="translate(-4546 -6206)" fill="#fff" opacity="0.5"/>
    <rect id="Rectangle_830" data-name="Rectangle 830" width="46" height="10" rx="2" transform="translate(-4744 -6250)" fill="#fff" opacity="0.3"/>
    <rect id="Rectangle_831" data-name="Rectangle 831" width="35" height="10" rx="2" transform="translate(-4686 -6250)" fill="#fff" opacity="0.3"/>
    <rect id="Rectangle_832" data-name="Rectangle 832" width="35" height="10" rx="2" transform="translate(-4639 -6250)" fill="#fff" opacity="0.3"/>
    <rect id="Rectangle_833" data-name="Rectangle 833" width="35" height="10" rx="2" transform="translate(-4593 -6250)" fill="#fff" opacity="0.3"/>
    <rect id="Rectangle_834" data-name="Rectangle 834" width="35" height="10" rx="2" transform="translate(-4546 -6250)" fill="#fff" opacity="0.3"/>
    <rect id="Rectangle_835" data-name="Rectangle 835" width="46" height="10" rx="2" transform="translate(-4744 -6184)" fill="#fff" opacity="0.5"/>
    <rect id="Rectangle_836" data-name="Rectangle 836" width="35" height="10" rx="2" transform="translate(-4686 -6184)" fill="#fff" opacity="0.5"/>
    <rect id="Rectangle_837" data-name="Rectangle 837" width="35" height="10" rx="2" transform="translate(-4639 -6184)" fill="#fff" opacity="0.5"/>
    <rect id="Rectangle_838" data-name="Rectangle 838" width="35" height="10" rx="2" transform="translate(-4593 -6184)" fill="#fff" opacity="0.5"/>
    <rect id="Rectangle_839" data-name="Rectangle 839" width="35" height="10" rx="2" transform="translate(-4546 -6184)" fill="#fff" opacity="0.5"/>
    <rect id="Rectangle_840" data-name="Rectangle 840" width="46" height="10" rx="2" transform="translate(-4744 -6162)" fill="#fff" opacity="0.5"/>
    <rect id="Rectangle_841" data-name="Rectangle 841" width="35" height="10" rx="2" transform="translate(-4686 -6162)" fill="#fff" opacity="0.5"/>
    <rect id="Rectangle_842" data-name="Rectangle 842" width="35" height="10" rx="2" transform="translate(-4639 -6162)" fill="#fff" opacity="0.5"/>
    <rect id="Rectangle_843" data-name="Rectangle 843" width="35" height="10" rx="2" transform="translate(-4593 -6162)" fill="#fff" opacity="0.5"/>
    <rect id="Rectangle_844" data-name="Rectangle 844" width="35" height="10" rx="2" transform="translate(-4546 -6162)" fill="#fff" opacity="0.5"/>
    <rect id="Rectangle_845" data-name="Rectangle 845" width="46" height="10" rx="2" transform="translate(-4744 -6140)" fill="#fff" opacity="0.5"/>
    <rect id="Rectangle_846" data-name="Rectangle 846" width="35" height="10" rx="2" transform="translate(-4686 -6140)" fill="#fff" opacity="0.5"/>
    <rect id="Rectangle_847" data-name="Rectangle 847" width="35" height="10" rx="2" transform="translate(-4639 -6140)" fill="#fff" opacity="0.5"/>
    <rect id="Rectangle_848" data-name="Rectangle 848" width="35" height="10" rx="2" transform="translate(-4593 -6140)" fill="#fff" opacity="0.5"/>
    <rect id="Rectangle_849" data-name="Rectangle 849" width="35" height="10" rx="2" transform="translate(-4546 -6140)" fill="#fff" opacity="0.5"/>
    <rect id="Rectangle_850" data-name="Rectangle 850" width="46" height="10" rx="2" transform="translate(-4744 -6228)" fill="#fff" opacity="0.5"/>
    <rect id="Rectangle_851" data-name="Rectangle 851" width="35" height="10" rx="2" transform="translate(-4686 -6228)" fill="#fff" opacity="0.5"/>
    <rect id="Rectangle_852" data-name="Rectangle 852" width="35" height="10" rx="2" transform="translate(-4639 -6228)" fill="#fff" opacity="0.5"/>
    <rect id="Rectangle_853" data-name="Rectangle 853" width="35" height="10" rx="2" transform="translate(-4593 -6228)" fill="#fff" opacity="0.5"/>
    <rect id="Rectangle_854" data-name="Rectangle 854" width="35" height="10" rx="2" transform="translate(-4546 -6228)" fill="#fff" opacity="0.5"/>
  </g>
</svg>
