<svg xmlns="http://www.w3.org/2000/svg" xmlns:xlink="http://www.w3.org/1999/xlink" width="253" height="140" viewBox="0 0 253 140">
  <defs>
    <linearGradient id="linear-gradient" x1="0.5" x2="0.5" y2="1" gradientUnits="objectBoundingBox">
      <stop offset="0" stop-color="#fff" stop-opacity="0.329"/>
      <stop offset="1" stop-color="#fff" stop-opacity="0"/>
    </linearGradient>
  </defs>
  <g id="Group_678" data-name="Group 678" transform="translate(4754 6427)">
    <g id="Wrapper" transform="translate(-4754 -6427)" fill="rgba(255,255,255,0)" stroke="#fff" stroke-width="2">
      <rect width="253" height="140" rx="10" stroke="none"/>
      <rect x="1" y="1" width="251" height="138" rx="9" fill="none"/>
    </g>
    <g id="Rectangle_806" data-name="Rectangle 806" transform="translate(-4744 -6417)" stroke="#fff" stroke-width="2" fill="url(#linear-gradient)">
      <rect width="233" height="88" rx="7" stroke="none"/>
      <rect x="1" y="1" width="231" height="86" rx="6" fill="none"/>
    </g>
    <rect id="Rectangle_807" data-name="Rectangle 807" width="60" height="14" rx="2" transform="translate(-4731 -6404)" fill="#fff" opacity="0.5"/>
    <g id="Button" transform="translate(-4744 -6316)" fill="rgba(255,255,255,0)" stroke="#fff" stroke-width="2">
      <rect width="233" height="19" rx="5" stroke="none"/>
      <rect x="1" y="1" width="231" height="17" rx="4" fill="none"/>
    </g>
    <rect id="Rectangle_808" data-name="Rectangle 808" width="60" height="10" rx="2" transform="translate(-4731 -6371)" fill="#fff" opacity="0.5"/>
    <rect id="Rectangle_809" data-name="Rectangle 809" width="60" height="10" rx="2" transform="translate(-4731 -6353)" fill="#fff" opacity="0.5"/>
    <rect id="Rectangle_810" data-name="Rectangle 810" width="60" height="10" rx="2" transform="translate(-4627 -6371)" fill="#fff" opacity="0.5"/>
    <rect id="Rectangle_811" data-name="Rectangle 811" width="60" height="10" rx="2" transform="translate(-4627 -6353)" fill="#fff" opacity="0.5"/>
  </g>
</svg>
