<svg xmlns="http://www.w3.org/2000/svg" width="253" height="140" viewBox="0 0 253 140">
  <g id="Group_688" data-name="Group 688" transform="translate(4754 6427)">
    <g id="Wrapper" transform="translate(-4754 -6427)" fill="rgba(255,255,255,0)" stroke="#fff" stroke-width="2">
      <rect width="253" height="140" rx="10" stroke="none"/>
      <rect x="1" y="1" width="251" height="138" rx="9" fill="none"/>
    </g>
    <g id="Rectangle_855" data-name="Rectangle 855" transform="translate(-4665 -6417)" fill="rgba(255,255,255,0)" stroke="#fff" stroke-width="2">
      <rect width="154" height="120" rx="7" stroke="none"/>
      <rect x="1" y="1" width="152" height="118" rx="6" fill="none"/>
    </g>
    <g id="Group_683" data-name="Group 683" transform="translate(-4599 -6365.282)">
      <path id="Path_503" data-name="Path 503" d="M7,11,9,9,7,7" transform="translate(-1.682 -3)" fill="none" stroke="#fff" stroke-linecap="round" stroke-linejoin="round" stroke-width="2"/>
      <path id="Path_504" data-name="Path 504" d="M11,13h4" transform="translate(-1.682 -3)" fill="none" stroke="#fff" stroke-linecap="round" stroke-linejoin="round" stroke-width="2"/>
      <rect id="Rectangle_805" data-name="Rectangle 805" width="18" height="18" rx="2" transform="translate(0 0.282)" fill="none" stroke="#fff" stroke-linecap="round" stroke-linejoin="round" stroke-width="2"/>
    </g>
    <g id="Rectangle_858" data-name="Rectangle 858" transform="translate(-4744 -6417)" fill="rgba(255,255,255,0.33)" stroke="#fff" stroke-width="2">
      <rect width="75" height="58" rx="4" stroke="none"/>
      <rect x="1" y="1" width="73" height="56" rx="3" fill="none"/>
    </g>
    <rect id="Rectangle_861" data-name="Rectangle 861" width="46" height="10" rx="2" transform="translate(-4737 -6409)" fill="#fff" opacity="0.5"/>
    <g id="Rectangle_862" data-name="Rectangle 862" transform="translate(-4744 -6355)" fill="rgba(255,255,255,0.33)" stroke="#fff" stroke-width="2">
      <rect width="75" height="58" rx="4" stroke="none"/>
      <rect x="1" y="1" width="73" height="56" rx="3" fill="none"/>
    </g>
    <rect id="Rectangle_863" data-name="Rectangle 863" width="46" height="10" rx="2" transform="translate(-4737 -6347)" fill="#fff" opacity="0.5"/>
    <path id="Path_505" data-name="Path 505" d="M-4586-6382.554l21.047-6.723,25.9,8.744,25.885-7.576" transform="translate(-157)" fill="none" stroke="#fff" stroke-width="2"/>
    <path id="Path_506" data-name="Path 506" d="M-4586-6382.554l21.047-6.723,25.9,8.744,25.885-7.576" transform="translate(-157 62)" fill="none" stroke="#fff" stroke-width="2"/>
  </g>
</svg>
